<?xml version="1.0" encoding="UTF-8"?>
<svg id="Camada_1" data-name="Camada 1" xmlns="http://www.w3.org/2000/svg" viewBox="0 0 600 46.07">
  <defs>
    <style>
      .cls-1 {
        fill: #864795;
      }
    </style>
  </defs>
  <g>
    <g>
      <path class="cls-1" d="M482.95,7l2.11,2.09-9,9-9-9,2.13-2.09,6.88,6.89,6.89-6.89Z"/>
      <path class="cls-1" d="M467.86,20.42v-4.43s4.43,0,4.43,0v4.43s-4.43,0-4.43,0ZM479.82,20.42v-4.43s4.43,0,4.43,0v4.43s-4.43,0-4.43,0Z"/>
      <path class="cls-1" d="M471.67,38.57c-1.38-.33-2.6-.86-3.64-1.57-1.04-.71-1.88-1.62-2.51-2.74-.63-1.12-.94-2.46-.94-4.02v-7.46h22.95v7.46c0,1.58-.31,2.93-.93,4.05-.62,1.12-1.46,2.03-2.51,2.74-1.05.71-2.27,1.22-3.66,1.55-1.39.32-2.85.48-4.39.48s-3-.17-4.38-.5ZM482.11,34.08c1.43-.9,2.15-2.18,2.15-3.83v-3.82s-16.41,0-16.41,0v3.82c0,1.65.7,2.93,2.1,3.83,1.4.9,3.43,1.35,6.08,1.35s4.64-.45,6.07-1.35Z"/>
    </g>
    <path class="cls-1" d="M476.06,46.07c-3.11,0-6.13-.61-8.97-1.81-2.74-1.16-5.21-2.82-7.32-4.94-2.11-2.11-3.78-4.58-4.94-7.32-1.2-2.84-1.81-5.86-1.81-8.97s.61-6.13,1.81-8.97c1.16-2.74,2.82-5.21,4.94-7.32,2.11-2.11,4.58-3.78,7.32-4.94C469.93.61,472.95,0,476.06,0s6.13.61,8.97,1.81c2.74,1.16,5.21,2.82,7.32,4.94,2.11,2.11,3.78,4.58,4.94,7.32,1.2,2.84,1.81,5.86,1.81,8.97s-.61,6.13-1.81,8.97c-1.16,2.74-2.82,5.21-4.94,7.32-2.11,2.11-4.58,3.78-7.32,4.94-2.84,1.2-5.86,1.81-8.97,1.81ZM476.06,3.19c-10.94,0-19.84,8.9-19.84,19.84s8.9,19.84,19.84,19.84,19.84-8.9,19.84-19.84-8.9-19.84-19.84-19.84Z"/>
  </g>
  <g>
    <g>
      <path class="cls-1" d="M429.48,15.54l-.04-4.36,4.36-.04.04,4.36-4.36.04ZM417.72,15.66l-.04-4.36,4.36-.04.04,4.36-4.36.04Z"/>
      <path class="cls-1" d="M421.45,34.92c-1.11-.27-2.11-.62-3.02-1.08-.9-.45-1.67-1.01-2.31-1.66-.64-.66-1.13-1.42-1.48-2.3-.35-.88-.53-1.89-.55-3.03-.02-1.58.3-2.92.94-4.02.64-1.1,1.5-2.01,2.58-2.72,1.08-.71,2.32-1.23,3.72-1.55,1.4-.32,2.85-.49,4.36-.5s2.97.12,4.38.42c1.41.29,2.65.78,3.73,1.45,1.08.68,1.95,1.54,2.61,2.6.66,1.05,1,2.35,1.01,3.88,0,.5-.05,1-.18,1.51-.12.51-.31.98-.56,1.42-.25.44-.57.83-.95,1.16s-.81.57-1.31.71l2.66-.03.03,3.21-8.54.08-.03-3.21c.7,0,1.4-.1,2.08-.28.68-.18,1.29-.46,1.82-.85.53-.39.95-.87,1.28-1.45.33-.58.49-1.26.48-2.04-.01-1.01-.27-1.84-.77-2.48-.5-.64-1.16-1.15-1.97-1.54-.81-.38-1.72-.65-2.72-.79-1.01-.15-2.01-.21-3.03-.2s-2.03.1-3.04.26c-1.01.17-1.92.44-2.72.83-.8.39-1.44.91-1.93,1.57-.49.66-.73,1.5-.72,2.51.01,1.46.49,2.58,1.43,3.37.94.78,2.2,1.4,3.79,1.86l-1.08,2.88Z"/>
    </g>
    <path class="cls-1" d="M425.76,46.07c-3.11,0-6.13-.61-8.97-1.81-2.74-1.16-5.21-2.82-7.32-4.94-2.11-2.11-3.78-4.58-4.94-7.32-1.2-2.84-1.81-5.86-1.81-8.97s.61-6.13,1.81-8.97c1.16-2.74,2.82-5.21,4.94-7.32,2.11-2.11,4.58-3.78,7.32-4.94C419.63.61,422.65,0,425.76,0s6.13.61,8.97,1.81c2.74,1.16,5.21,2.82,7.32,4.94,2.11,2.11,3.78,4.58,4.94,7.32,1.2,2.84,1.81,5.86,1.81,8.97s-.61,6.13-1.81,8.97c-1.16,2.74-2.82,5.21-4.94,7.32-2.11,2.11-4.58,3.78-7.32,4.94-2.84,1.2-5.86,1.81-8.97,1.81ZM425.76,3.19c-10.94,0-19.84,8.9-19.84,19.84s8.9,19.84,19.84,19.84,19.84-8.9,19.84-19.84-8.9-19.84-19.84-19.84Z"/>
  </g>
  <g>
    <path class="cls-1" d="M526.36,46.07c-3.11,0-6.13-.61-8.97-1.81-2.74-1.16-5.21-2.82-7.32-4.94-2.11-2.11-3.78-4.58-4.94-7.32-1.2-2.84-1.81-5.86-1.81-8.97s.61-6.13,1.81-8.97c1.16-2.74,2.82-5.21,4.94-7.32,2.11-2.11,4.58-3.78,7.32-4.94C520.23.61,523.25,0,526.36,0s6.13.61,8.97,1.81c2.74,1.16,5.21,2.82,7.32,4.94,2.11,2.11,3.78,4.58,4.94,7.32,1.2,2.84,1.81,5.86,1.81,8.97s-.61,6.13-1.81,8.97c-1.16,2.74-2.82,5.21-4.94,7.32-2.11,2.11-4.58,3.78-7.32,4.94-2.84,1.2-5.86,1.81-8.97,1.81ZM526.36,3.19c-10.94,0-19.84,8.9-19.84,19.84s8.9,19.84,19.84,19.84,19.84-8.9,19.84-19.84-8.9-19.84-19.84-19.84Z"/>
    <g>
      <path class="cls-1" d="M537.03,18.71h-4.21v-1.77h.78l-1.21-1.86-1.19,1.86h.72v1.77h-4.18v-1.77h1.29l1.99-2.74-1.9-2.6h-1.19v-1.77h4v1.77h-.63l1.08,1.73,1.1-1.73h-.71v-1.77h4.04v1.77h-1.15l-1.9,2.6,1.99,2.74h1.27v1.77Z"/>
      <path class="cls-1" d="M524.97,18.85h-4.21v-1.77h.78l-1.21-1.86-1.19,1.86h.72v1.77h-4.18v-1.77h1.29l1.99-2.74-1.9-2.6h-1.19v-1.77h4v1.77h-.63l1.08,1.73,1.1-1.73h-.71v-1.77h4.04v1.77h-1.15l-1.9,2.6,1.99,2.74h1.27v1.77Z"/>
      <path class="cls-1" d="M530.65,36.24c-2.14,0-3.73-.6-4.77-1.8-1.04-1.2-1.56-2.87-1.56-5.02v-3.4h-8.64v-3.13h21.35v6.5c0,2.17-.54,3.85-1.61,5.05-1.07,1.2-2.66,1.8-4.77,1.8ZM530.7,33.12c1.1,0,1.92-.33,2.47-.99.55-.66.82-1.56.82-2.7v-3.4h-6.63v3.4c0,1.14.27,2.04.82,2.7.55.66,1.39.99,2.52.99Z"/>
    </g>
  </g>
  <g>
    <path class="cls-1" d="M576.66,46.07c-3.11,0-6.13-.61-8.97-1.81-2.74-1.16-5.21-2.82-7.32-4.94-2.11-2.11-3.78-4.58-4.94-7.32-1.2-2.84-1.81-5.86-1.81-8.97s.61-6.13,1.81-8.97c1.16-2.74,2.82-5.21,4.94-7.32,2.11-2.11,4.58-3.78,7.32-4.94C570.54.61,573.55,0,576.66,0s6.13.61,8.97,1.81c2.74,1.16,5.21,2.82,7.32,4.94,2.11,2.11,3.78,4.58,4.94,7.32,1.2,2.84,1.81,5.86,1.81,8.97s-.61,6.13-1.81,8.97c-1.16,2.74-2.82,5.21-4.94,7.32-2.11,2.11-4.58,3.78-7.32,4.94-2.84,1.2-5.86,1.81-8.97,1.81ZM576.66,3.19c-10.94,0-19.84,8.9-19.84,19.84s8.9,19.84,19.84,19.84,19.84-8.9,19.84-19.84-8.9-19.84-19.84-19.84Z"/>
    <g>
      <path class="cls-1" d="M568.47,18.71v-4.43s4.43,0,4.43,0v4.43s-4.43,0-4.43,0ZM580.42,18.71v-4.43s4.43,0,4.43,0v4.43s-4.43,0-4.43,0Z"/>
      <path class="cls-1" d="M576.65,21.08c1.54,0,3,.16,4.39.48,1.39.32,2.61.84,3.66,1.55,1.05.71,1.88,1.62,2.51,2.74.62,1.12.93,2.47.93,4.05v7.46s-22.95,0-22.95,0v-7.46c0-1.56.31-2.9.94-4.02.63-1.12,1.46-2.03,2.51-2.74,1.04-.71,2.26-1.23,3.64-1.57,1.38-.33,2.84-.5,4.38-.5ZM576.64,24.72c-2.65,0-4.68.45-6.08,1.35-1.4.9-2.1,2.18-2.1,3.83v3.82h16.41v-3.82c0-1.65-.72-2.93-2.15-3.83-1.43-.9-3.46-1.35-6.07-1.35Z"/>
      <path class="cls-1" d="M583.08,9.45l-.61,1.58.11.04c.22.09.43.14.62.15.19.02.38-.01.55-.08.17-.07.33-.2.48-.37.15-.18.28-.42.4-.72l1.32.51c-.21.53-.46.95-.75,1.25s-.61.52-.95.65c-.34.13-.7.17-1.06.14s-.73-.12-1.08-.26l-2.04-.79,1.1-2.85,1.93.75Z"/>
      <path class="cls-1" d="M572.19,8.72l1.08,2.87-2.05.77c-.35.13-.71.21-1.08.24s-.72-.02-1.06-.15-.66-.35-.95-.66c-.29-.31-.53-.73-.74-1.27l1.32-.5c.23.61.52.98.86,1.1.35.13.73.11,1.16-.05l.12-.04-.6-1.59,1.94-.73Z"/>
    </g>
  </g>
  <g>
    <path class="cls-1" d="M375.45,46.07c-3.11,0-6.13-.61-8.97-1.81-2.74-1.16-5.21-2.82-7.32-4.94-2.11-2.11-3.78-4.58-4.94-7.32-1.2-2.84-1.81-5.86-1.81-8.97s.61-6.13,1.81-8.97c1.16-2.74,2.82-5.21,4.94-7.32,2.11-2.11,4.58-3.78,7.32-4.94C369.33.61,372.34,0,375.45,0s6.13.61,8.97,1.81c2.74,1.16,5.21,2.82,7.32,4.94,2.11,2.11,3.78,4.58,4.94,7.32,1.2,2.84,1.81,5.86,1.81,8.97s-.61,6.13-1.81,8.97c-1.16,2.74-2.82,5.21-4.94,7.32-2.11,2.11-4.58,3.78-7.32,4.94-2.84,1.2-5.86,1.81-8.97,1.81ZM375.45,3.19c-10.94,0-19.84,8.9-19.84,19.84s8.9,19.84,19.84,19.84,19.84-8.9,19.84-19.84-8.9-19.84-19.84-19.84Z"/>
    <g>
      <path class="cls-1" d="M368.3,19.34c-.36-.33-.77-.61-1.22-.84-.37-.18-.75-.35-1.12-.51v-2.9c.49.3.78.81.88,1.56l.04.32,2.5-.28-.02-.31c-.03-.47-.13-.93-.31-1.37-.18-.44-.43-.84-.74-1.19-.31-.35-.7-.65-1.14-.89-.37-.2-.78-.36-1.22-.46v-1.75h-2.45v1.69c-1.01.17-1.81.55-2.4,1.12-.66.64-.99,1.43-.99,2.34,0,.59.11,1.11.32,1.54.21.43.49.8.83,1.12.34.31.73.58,1.17.79.35.17.71.33,1.07.48v3.58c-.69-.3-1.12-.91-1.3-1.85l-.06-.31-2.48.39.03.31c.11,1.09.52,2.01,1.23,2.74.65.67,1.51,1.1,2.58,1.28v1.69h2.45v-1.69c.49-.09.93-.22,1.33-.4.48-.22.89-.5,1.22-.84.33-.34.59-.72.77-1.14.18-.42.27-.87.27-1.34,0-.64-.12-1.21-.35-1.67-.23-.46-.53-.86-.89-1.19ZM366.89,22.2c0,.37-.11.65-.32.86-.16.15-.37.27-.61.35v-2.55c.23.14.43.29.59.45.23.22.35.51.35.89ZM363.5,14.94v1.98c-.17-.11-.32-.23-.45-.35-.19-.19-.29-.42-.29-.72s.08-.49.26-.64c.12-.11.28-.2.48-.27Z"/>
      <path class="cls-1" d="M379.58,23.76c-.41-.64-.96-1.16-1.61-1.55-.67-.39-1.47-.59-2.4-.59s-1.73.2-2.4.59c-.66.39-1.2.91-1.61,1.55-.4.63-.7,1.36-.89,2.19-.19.81-.28,1.66-.28,2.52s.09,1.71.26,2.52c.18.82.47,1.56.88,2.2.41.65.95,1.18,1.61,1.57.67.39,1.48.59,2.42.59s1.75-.2,2.42-.59c.66-.39,1.2-.92,1.61-1.57.4-.64.69-1.38.87-2.19.18-.8.27-1.65.27-2.52s-.09-1.71-.27-2.52c-.18-.82-.48-1.56-.89-2.19ZM378.08,28.48c0,.55-.04,1.11-.13,1.66-.08.54-.22,1.02-.42,1.44-.19.4-.44.73-.76.97-.31.24-.7.35-1.2.35s-.9-.12-1.2-.35c-.32-.24-.58-.57-.76-.97-.2-.42-.34-.9-.42-1.44-.08-.55-.13-1.11-.13-1.66,0-1.42.23-2.54.68-3.32.43-.73,1.02-1.09,1.83-1.09.49,0,.88.12,1.19.35.33.24.59.57.77.97.2.42.34.91.42,1.44.08.54.13,1.1.13,1.65Z"/>
      <path class="cls-1" d="M390.86,20.53c-.23-.46-.53-.86-.89-1.19-.36-.33-.77-.61-1.22-.84-.37-.18-.75-.35-1.12-.51v-2.9c.49.3.78.81.88,1.56l.04.32,2.5-.28-.02-.31c-.03-.47-.13-.93-.31-1.37-.18-.44-.43-.84-.74-1.19-.31-.35-.7-.65-1.14-.89-.37-.2-.78-.35-1.22-.46v-1.75h-2.45v1.69c-1.01.17-1.81.55-2.4,1.12-.66.64-.99,1.43-.99,2.34,0,.59.11,1.11.32,1.54.21.43.49.8.83,1.12.34.31.73.58,1.17.79.35.17.71.33,1.07.48v3.58c-.69-.3-1.12-.91-1.3-1.85l-.06-.31-2.48.39.03.31c.11,1.09.52,2.01,1.23,2.74.65.67,1.51,1.1,2.58,1.28v1.69h2.45v-1.69c.49-.09.93-.22,1.33-.4.48-.22.89-.5,1.22-.84.33-.34.59-.72.77-1.14.18-.42.27-.87.27-1.34,0-.64-.12-1.21-.35-1.67ZM388.56,22.2c0,.37-.11.65-.32.86-.16.15-.37.27-.61.35v-2.55c.23.14.43.29.59.45.23.22.35.51.35.89ZM385.16,14.94v1.98c-.17-.11-.32-.23-.45-.35-.19-.19-.29-.42-.29-.72s.08-.49.26-.64c.12-.11.28-.2.48-.27Z"/>
    </g>
  </g>
  <g>
    <path class="cls-1" d="M174.24,46.07c-3.11,0-6.13-.61-8.97-1.81-2.74-1.16-5.21-2.82-7.32-4.94-2.11-2.11-3.78-4.58-4.94-7.32-1.2-2.84-1.81-5.86-1.81-8.97s.61-6.13,1.81-8.97c1.16-2.74,2.82-5.21,4.94-7.32,2.11-2.11,4.58-3.78,7.32-4.94C168.12.61,171.14,0,174.24,0s6.13.61,8.97,1.81c2.74,1.16,5.21,2.82,7.32,4.94,2.11,2.11,3.78,4.58,4.94,7.32,1.2,2.84,1.81,5.86,1.81,8.97s-.61,6.13-1.81,8.97c-1.16,2.74-2.82,5.21-4.94,7.32-2.11,2.11-4.58,3.78-7.32,4.94-2.84,1.2-5.86,1.81-8.97,1.81ZM174.24,3.19c-10.94,0-19.84,8.9-19.84,19.84s8.9,19.84,19.84,19.84,19.84-8.9,19.84-19.84-8.9-19.84-19.84-19.84Z"/>
    <g>
      <polygon class="cls-1" points="182.96 15.16 187.38 19.58 189.38 17.64 182.96 11.22 176.54 17.64 178.52 19.58 182.96 15.16"/>
      <polygon class="cls-1" points="165.53 15.16 169.96 19.58 171.95 17.64 165.53 11.22 159.12 17.64 161.1 19.58 165.53 15.16"/>
      <rect class="cls-1" x="176.79" y="21.1" width="11.86" height="3.41"/>
      <rect class="cls-1" x="159.41" y="21.1" width="11.86" height="3.41"/>
      <path class="cls-1" d="M182.96,27.37c-.5.65-1.09,1.23-1.74,1.74-.66.51-1.38.95-2.12,1.3-.74.35-1.53.62-2.34.8-1.6.36-3.26.36-4.89,0-.81-.18-1.6-.45-2.34-.8-.74-.35-1.45-.78-2.11-1.3-.66-.51-1.25-1.1-1.75-1.74l-.45-.58-2.37,2.37.36.46c.66.85,1.43,1.6,2.27,2.25.84.64,1.74,1.19,2.69,1.64.95.45,1.96.8,2.99,1.03,1.03.24,2.09.35,3.16.35s2.13-.12,3.16-.35c1.04-.24,2.04-.58,2.99-1.03.95-.45,1.85-1,2.69-1.64.84-.65,1.61-1.4,2.27-2.25l.36-.46-2.37-2.37-.45.59Z"/>
    </g>
  </g>
  <g>
    <path class="cls-1" d="M224.55,46.07c-3.11,0-6.13-.61-8.97-1.81-2.74-1.16-5.21-2.82-7.32-4.94-2.11-2.11-3.78-4.58-4.94-7.32-1.2-2.84-1.81-5.86-1.81-8.97s.61-6.13,1.81-8.97c1.16-2.74,2.82-5.21,4.94-7.32,2.11-2.11,4.58-3.78,7.32-4.94C218.42.61,221.44,0,224.55,0s6.13.61,8.97,1.81c2.74,1.16,5.21,2.82,7.32,4.94,2.11,2.11,3.78,4.58,4.94,7.32,1.2,2.84,1.81,5.86,1.81,8.97s-.61,6.13-1.81,8.97c-1.16,2.74-2.82,5.21-4.94,7.32-2.11,2.11-4.58,3.78-7.32,4.94-2.84,1.2-5.86,1.81-8.97,1.81ZM224.55,3.19c-10.94,0-19.84,8.9-19.84,19.84s8.9,19.84,19.84,19.84,19.84-8.9,19.84-19.84-8.9-19.84-19.84-19.84Z"/>
    <g>
      <rect class="cls-1" x="227.31" y="20.81" width="11.86" height="3.41"/>
      <rect class="cls-1" x="209.92" y="20.81" width="11.86" height="3.41"/>
      <rect class="cls-1" x="234.74" y="30.45" width="4.43" height="4.43"/>
    </g>
  </g>
  <g>
    <path class="cls-1" d="M73.64,46.07c-3.11,0-6.13-.61-8.97-1.81-2.74-1.16-5.21-2.82-7.32-4.94-2.11-2.11-3.78-4.58-4.94-7.32-1.2-2.84-1.81-5.86-1.81-8.97s.61-6.13,1.81-8.97c1.16-2.74,2.82-5.21,4.94-7.32,2.11-2.11,4.58-3.78,7.32-4.94C67.51.61,70.53,0,73.64,0s6.13.61,8.97,1.81c2.74,1.16,5.21,2.82,7.32,4.94,2.11,2.11,3.78,4.58,4.94,7.32,1.2,2.84,1.81,5.86,1.81,8.97s-.61,6.13-1.81,8.97c-1.16,2.74-2.82,5.21-4.94,7.32-2.11,2.11-4.58,3.78-7.32,4.94-2.84,1.2-5.86,1.81-8.97,1.81ZM73.64,3.19c-10.94,0-19.84,8.9-19.84,19.84s8.9,19.84,19.84,19.84,19.84-8.9,19.84-19.84S84.58,3.19,73.64,3.19Z"/>
    <g>
      <path class="cls-1" d="M84.16,34.2c0,.67-.14,1.27-.41,1.81-.27.54-.64,1-1.09,1.38s-.98.68-1.58.89c-.6.21-1.22.31-1.87.31-.74,0-1.43-.1-2.06-.3-.63-.2-1.19-.5-1.68-.91-.49-.4-.88-.92-1.18-1.56s-.49-1.4-.55-2.27l2.26-.37c.08,1,.4,1.8.98,2.37.58.58,1.32.87,2.23.87.76,0,1.38-.2,1.84-.61.46-.41.69-.94.69-1.61,0-.91-.3-1.56-.89-1.95-.59-.39-1.63-.59-3.1-.59v-2.17c.52,0,1.01-.05,1.45-.15.45-.1.84-.25,1.17-.46.33-.2.6-.45.79-.73.19-.28.29-.62.29-1,0-.64-.19-1.16-.57-1.55-.38-.39-.94-.59-1.67-.59-.96,0-1.69.26-2.2.78-.51.52-.76,1.34-.76,2.48h-2.3c0-.89.13-1.68.39-2.36.26-.68.61-1.24,1.07-1.7.46-.45,1.01-.8,1.66-1.03.65-.23,1.36-.34,2.15-.34.65,0,1.26.1,1.83.3.56.2,1.06.49,1.48.86.42.37.75.83.99,1.36.24.53.36,1.13.36,1.8,0,.43-.07.83-.2,1.22-.14.38-.33.72-.58,1.02-.25.3-.57.54-.95.72-.38.18-.8.29-1.25.32.53.05,1,.18,1.4.41.4.22.75.51,1.03.85.28.34.49.73.64,1.17.14.44.22.89.22,1.35Z"/>
      <path class="cls-1" d="M71.96,21.97l-10.12-4.96v-2.86l10.12,3.37v4.45ZM80.88,21.08v-4.56h4.56v4.56h-4.56Z"/>
    </g>
  </g>
  <g>
    <path class="cls-1" d="M23.34,46.07c-3.11,0-6.13-.61-8.97-1.81-2.74-1.16-5.21-2.82-7.32-4.94-2.11-2.11-3.78-4.58-4.94-7.32-1.2-2.84-1.81-5.86-1.81-8.97s.61-6.13,1.81-8.97c1.16-2.74,2.82-5.21,4.94-7.32,2.11-2.11,4.58-3.78,7.32-4.94C17.21.61,20.23,0,23.34,0s6.13.61,8.97,1.81c2.74,1.16,5.21,2.82,7.32,4.94,2.11,2.11,3.78,4.58,4.94,7.32,1.2,2.84,1.81,5.86,1.81,8.97s-.61,6.13-1.81,8.97c-1.16,2.74-2.82,5.21-4.94,7.32-2.11,2.11-4.58,3.78-7.32,4.94-2.84,1.2-5.86,1.81-8.97,1.81ZM23.34,3.19C12.4,3.19,3.49,12.09,3.49,23.03s8.9,19.84,19.84,19.84,19.84-8.9,19.84-19.84S34.28,3.19,23.34,3.19Z"/>
    <g>
      <g>
        <path class="cls-1" d="M17.34,17.9c.52,0,.91-.28,1.15-.85.24-.56.44-1.5.6-2.82l2.92.21c-.06.89-.2,1.72-.41,2.48-.21.76-.51,1.42-.9,1.97-.39.55-.86.99-1.42,1.32-.56.33-1.21.49-1.95.49-.81,0-1.44-.19-1.88-.58-.45-.39-.82-.82-1.11-1.29s-.55-.9-.76-1.29-.49-.58-.84-.58c-.52,0-.91.28-1.15.84-.24.56-.44,1.5-.6,2.81l-2.92-.22c.06-.87.2-1.69.41-2.46.21-.77.51-1.43.9-1.99.39-.56.86-1,1.42-1.32.56-.32,1.21-.48,1.95-.48.81,0,1.44.2,1.9.59.45.39.83.82,1.11,1.29.29.47.54.9.76,1.29.22.39.5.59.82.59Z"/>
        <path class="cls-1" d="M33.93,17.9c.52,0,.91-.28,1.15-.85.24-.56.44-1.5.6-2.82l2.92.21c-.06.89-.2,1.72-.41,2.48-.21.76-.51,1.42-.9,1.97-.39.55-.86.99-1.42,1.32-.56.33-1.21.49-1.95.49-.81,0-1.44-.19-1.88-.58-.45-.39-.82-.82-1.11-1.29s-.55-.9-.76-1.29-.49-.58-.84-.58c-.52,0-.91.28-1.15.84-.24.56-.44,1.5-.6,2.81l-2.92-.22c.06-.87.2-1.69.41-2.46.21-.77.51-1.43.9-1.99.39-.56.86-1,1.42-1.32.56-.32,1.21-.48,1.95-.48.81,0,1.44.2,1.9.59.45.39.83.82,1.11,1.29.29.47.54.9.76,1.29.22.39.5.59.82.59Z"/>
      </g>
      <path class="cls-1" d="M22.99,31.24l7.14-7.16,2.21,2.17-9.35,9.35-9.35-9.35,2.19-2.17,7.16,7.16Z"/>
    </g>
  </g>
  <g>
    <path class="cls-1" d="M274.85,46.07c-3.11,0-6.13-.61-8.97-1.81-2.74-1.16-5.21-2.82-7.32-4.94-2.11-2.11-3.78-4.58-4.94-7.32-1.2-2.84-1.81-5.86-1.81-8.97s.61-6.13,1.81-8.97c1.16-2.74,2.82-5.21,4.94-7.32,2.11-2.11,4.58-3.78,7.32-4.94C268.72.61,271.74,0,274.85,0s6.13.61,8.97,1.81c2.74,1.16,5.21,2.82,7.32,4.94,2.11,2.11,3.78,4.58,4.94,7.32,1.2,2.84,1.81,5.86,1.81,8.97s-.61,6.13-1.81,8.97c-1.16,2.74-2.82,5.21-4.94,7.32-2.11,2.11-4.58,3.78-7.32,4.94-2.84,1.2-5.86,1.81-8.97,1.81ZM274.85,3.19c-10.94,0-19.84,8.9-19.84,19.84s8.9,19.84,19.84,19.84,19.84-8.9,19.84-19.84-8.9-19.84-19.84-19.84Z"/>
    <g>
      <path class="cls-1" d="M266.65,20.42v-4.43s4.43,0,4.43,0v4.43s-4.43,0-4.43,0ZM278.61,20.42v-4.43s4.43,0,4.43,0v4.43s-4.43,0-4.43,0Z"/>
      <path class="cls-1" d="M275.28,39.9c-2.54,0-4.42-.77-5.63-2.31-1.21-1.54-1.82-3.68-1.82-6.43v-4.36h-5.41v-4.01h25.29v4.01h-4.98v4.32c0,2.78-.62,4.93-1.87,6.47-1.24,1.54-3.11,2.31-5.58,2.31ZM275.29,35.92c1.29,0,2.25-.43,2.89-1.29.63-.86.95-2.02.95-3.48v-4.36h-7.69v4.36c0,1.46.31,2.62.93,3.48.62.86,1.6,1.29,2.93,1.29Z"/>
    </g>
  </g>
  <g>
    <path class="cls-1" d="M325.15,46.07c-3.11,0-6.13-.61-8.97-1.81-2.74-1.16-5.21-2.82-7.32-4.94-2.11-2.11-3.78-4.58-4.94-7.32-1.2-2.84-1.81-5.86-1.81-8.97s.61-6.13,1.81-8.97c1.16-2.74,2.82-5.21,4.94-7.32,2.11-2.11,4.58-3.78,7.32-4.94C319.03.61,322.04,0,325.15,0s6.13.61,8.97,1.81c2.74,1.16,5.21,2.82,7.32,4.94,2.11,2.11,3.78,4.58,4.94,7.32,1.2,2.84,1.81,5.86,1.81,8.97s-.61,6.13-1.81,8.97c-1.16,2.74-2.82,5.21-4.94,7.32-2.11,2.11-4.58,3.78-7.32,4.94-2.84,1.2-5.86,1.81-8.97,1.81ZM325.15,3.19c-10.94,0-19.84,8.9-19.84,19.84s8.9,19.84,19.84,19.84,19.84-8.9,19.84-19.84-8.9-19.84-19.84-19.84Z"/>
    <g>
      <path class="cls-1" d="M316.96,20.42v-4.43s4.43,0,4.43,0v4.43s-4.43,0-4.43,0ZM328.91,20.42v-4.43s4.43,0,4.43,0v4.43s-4.43,0-4.43,0Z"/>
      <path class="cls-1" d="M327.85,29.2c.62,0,1.07-.33,1.35-.99.28-.66.52-1.77.71-3.31l3.43.24c-.07,1.05-.23,2.02-.48,2.91-.25.9-.6,1.67-1.05,2.32-.45.65-1.01,1.17-1.67,1.55-.66.38-1.42.58-2.29.58-.95,0-1.69-.23-2.21-.68-.52-.45-.96-.96-1.31-1.52-.35-.56-.65-1.06-.9-1.52s-.58-.68-.99-.68c-.62,0-1.07.33-1.35.99-.29.66-.52,1.76-.71,3.3l-3.43-.26c.07-1.02.23-1.98.48-2.89.25-.9.6-1.68,1.06-2.34.45-.66,1.01-1.17,1.66-1.55.66-.38,1.42-.57,2.29-.57.95,0,1.7.23,2.23.69.53.46.97.97,1.31,1.52.34.55.64,1.06.9,1.52.26.46.58.69.97.69Z"/>
    </g>
  </g>
  <g>
    <path class="cls-1" d="M123.94,46.07c-3.11,0-6.13-.61-8.97-1.81-2.74-1.16-5.21-2.82-7.32-4.94-2.11-2.11-3.78-4.58-4.94-7.32-1.2-2.84-1.81-5.86-1.81-8.97s.61-6.13,1.81-8.97c1.16-2.74,2.82-5.21,4.94-7.32,2.11-2.11,4.58-3.78,7.32-4.94C117.82.61,120.83,0,123.94,0s6.13.61,8.97,1.81c2.74,1.16,5.21,2.82,7.32,4.94,2.11,2.11,3.78,4.58,4.94,7.32,1.2,2.84,1.81,5.86,1.81,8.97s-.61,6.13-1.81,8.97c-1.16,2.74-2.82,5.21-4.94,7.32-2.11,2.11-4.58,3.78-7.32,4.94-2.84,1.2-5.86,1.81-8.97,1.81ZM123.94,3.19c-10.94,0-19.84,8.9-19.84,19.84s8.9,19.84,19.84,19.84,19.84-8.9,19.84-19.84-8.9-19.84-19.84-19.84Z"/>
    <g>
      <path class="cls-1" d="M112.88,26.43v2.28c0,.52.11.88.32,1.08.21.19.58.29,1.1.29h6.37c.44,0,.86.08,1.25.24.39.16.72.37,1.02.62.29.25.52.54.7.88.17.33.29.68.35,1.05.14-.73.5-1.38,1.07-1.94.58-.56,1.33-.85,2.26-.85h6.32c.53,0,.9-.1,1.09-.29.19-.19.29-.55.29-1.08v-2.28h2.76v2.28c0,.6-.1,1.16-.3,1.66-.2.5-.49.94-.85,1.31-.37.37-.8.65-1.31.85-.5.2-1.06.3-1.68.3h-6.32c-.83,0-1.36.23-1.59.7-.23.46-.35,1.15-.35,2.06h-2.76c0-.91-.12-1.6-.36-2.06-.24-.47-.77-.7-1.58-.7h-6.38c-.61,0-1.17-.1-1.68-.3-.5-.2-.94-.49-1.32-.85-.38-.37-.67-.8-.87-1.31-.2-.5-.3-1.06-.3-1.66v-2.28h2.76Z"/>
      <path class="cls-1" d="M130.69,11.14l2.11,2.09-9,9-9-9,2.13-2.09,6.88,6.89,6.89-6.89Z"/>
      <path class="cls-1" d="M115.6,24.56v-4.43s4.43,0,4.43,0v4.43s-4.43,0-4.43,0ZM127.56,24.56v-4.43s4.43,0,4.43,0v4.43s-4.43,0-4.43,0Z"/>
    </g>
  </g>
</svg>
