<?xml version="1.0" encoding="UTF-8"?>
<svg id="Camada_1" data-name="Camada 1" xmlns="http://www.w3.org/2000/svg" viewBox="0 0 313.67 81.01">
  <defs>
    <style>
      .cls-1 {
        fill: #f9f8f3;
      }

      .cls-2 {
        fill: #e89d23;
      }
    </style>
  </defs>
  <path class="cls-1" d="M77.67,24l-13.95,38.66c-1.04,2.8-2.55,4.72-4.54,5.76s-4.36,1.56-7.12,1.56c-.95,0-1.97-.09-3.05-.28-1.48-.25-2.86-.81-4.31-1.17s-2.89-.67-4.35-.93c-2.51-.45-5.05-.75-7.6-.86-.88-.04-1.76-.05-2.64-.04-1.39.02-2.68.1-3.86.23-7.01.75-10.42,3.05-10.42,3.05v-7.88c2.17-.86,4.39-1.47,6.59-1.88.32-.06.54-.33.54-.65v-6.51h-.04V18.17c0-.37-.3-.66-.66-.66h-4.85c-.37,0-.66.3-.66.66v9.37h-6.39V11.05h32.31v16.48h-6.46v-9.37c0-.37-.3-.66-.66-.66h-4.78c-.37,0-.66.3-.66.66v40.71c0,.36.29.66.66.66,2.6.02,5.2.25,7.78.65,2.16.33,4.29.78,6.4,1.35,1.85.5,3.65,1.26,5.55,1.53,1.27.18,2.72.21,3.9-.37.98-.49,1.66-1.36,2.08-2.35l1.19-2.88c.06-.15.07-.33,0-.48l-12.26-32.97h7.46l8.24,22.69c.21.59,1.05.58,1.25-.02l7.62-22.67h7.7-.01Z"/>
  <path class="cls-1" d="M82.55,24h7.18v1.5c0,.55.63.86,1.06.53,1.02-.79,2.05-1.41,3.08-1.87,1.4-.61,3-.92,4.81-.92,2.08,0,4.01.42,5.8,1.27,1.78.84,3.31,2.01,4.58,3.51,1.27,1.49,2.28,3.29,3.02,5.38s1.11,4.37,1.11,6.82-.37,4.75-1.11,6.84c-.74,2.08-1.75,3.87-3.02,5.36s-2.8,2.65-4.58,3.49c-1.78.83-3.71,1.25-5.8,1.25-1.8,0-3.41-.32-4.81-.97-1.04-.48-2.06-1.11-3.08-1.9-.44-.34-1.07-.03-1.07.52v14.94h-7.18V24h.01ZM89.73,47.43c0,.17.06.33.18.45.83.86,1.86,1.53,3.1,2.02,1.33.52,2.61.78,3.83.78,2.71,0,4.91-.96,6.61-2.89,1.7-1.92,2.55-4.45,2.55-7.58s-.85-5.67-2.55-7.61-3.9-2.92-6.61-2.92c-1.23,0-2.5.25-3.83.75-1.24.46-2.27,1.12-3.1,1.98-.12.12-.18.29-.18.45v14.56h0Z"/>
  <path class="cls-1" d="M123.49,42.91c-.43,0-.75.41-.64.83.46,1.87,1.46,3.44,3.01,4.73,1.77,1.48,4.15,2.21,7.13,2.21,2.34,0,4.37-.36,6.09-1.09s3.21-1.69,4.46-2.9l3.68,5.06c-2.08,2.07-4.29,3.49-6.61,4.25-2.33.76-4.86,1.14-7.62,1.14-2.5,0-4.82-.42-6.98-1.25-2.15-.83-4.01-2-5.59-3.49-1.57-1.49-2.81-3.27-3.7-5.33-.89-2.06-1.34-4.35-1.34-6.87s.41-4.71,1.23-6.78,1.98-3.86,3.47-5.38c1.49-1.51,3.28-2.69,5.36-3.54,2.08-.84,4.38-1.27,6.91-1.27s4.99.45,7.11,1.34c2.13.89,3.95,2.18,5.47,3.87,1.52,1.69,2.7,3.75,3.56,6.19s1.28,5.2,1.28,8.28h-26.3.02ZM140.83,36.59c.44,0,.76-.42.64-.85-.49-1.69-1.5-3.08-3.03-4.17-1.78-1.26-3.81-1.89-6.07-1.89s-4.3.63-6.11,1.89c-1.55,1.09-2.58,2.47-3.07,4.17-.12.42.2.85.64.85h17Z"/>
  <path class="cls-1" d="M183.68,30.45h-11.94c-.37,0-.66.3-.66.66v18.11c0,.37.3.66.66.66h6.73v6.45h-21.72v-6.45h6.49c.37,0,.66-.3.66-.66v-18.11c0-.37-.3-.66-.66-.66h-6.49v-6.45h6.5c.36,0,.65-.28.66-.64.13-4.13,1.49-7.31,4.09-9.55,2.73-2.35,6.42-3.52,11.07-3.52.69,0,1.43.03,2.22.1.79.07,1.58.15,2.39.24v6.32c-1.39-.14-2.65-.21-3.78-.21-1.85,0-3.34.13-4.48.4-1.13.27-2.02.69-2.66,1.28s-1.08,1.35-1.32,2.27c-.2.76-.32,1.63-.35,2.61,0,.37.29.69.66.69h11.92v6.45h.01Z"/>
  <path class="cls-1" d="M186.44,47.04c0-1.9.51-3.56,1.53-4.98s2.35-2.61,4.01-3.56c1.65-.95,3.55-1.66,5.69-2.13s4.32-.71,6.54-.71c1.23,0,2.28.02,3.16.07.64.03,1.29.08,1.95.14.39.03.72-.27.72-.66v-.56c0-1.69-.65-2.95-1.96-3.78-1.31-.83-3.03-1.25-5.15-1.25-1.94,0-3.92.27-5.93.82-2.01.54-3.92,1.34-5.73,2.38l-2.92-5.62c2.13-1.23,4.41-2.19,6.85-2.9s5.01-1.06,7.72-1.06c1.76,0,3.49.2,5.19.59s3.23,1.04,4.58,1.94,2.43,2.08,3.24,3.52c.81,1.45,1.21,3.23,1.21,5.36v21.69h-7.11v-4.78c-1.13,1.77-2.81,3.14-5.01,4.12-2.21.98-4.59,1.47-7.13,1.47-1.57,0-3.06-.21-4.46-.64-1.4-.43-2.61-1.07-3.63-1.93s-1.83-1.91-2.45-3.18c-.61-1.26-.92-2.71-.92-4.36h0ZM199.73,50.68c1.41,0,2.74-.18,3.97-.54,1.24-.36,2.33-.85,3.28-1.49.95-.63,1.69-1.4,2.24-2.3.54-.9.82-1.89.82-2.97v-.64c0-.33-.25-.61-.57-.66-.92-.13-1.79-.21-2.62-.22-1-.02-1.87-.03-2.64-.03-3.52,0-6.17.46-7.96,1.38-1.79.92-2.69,2.06-2.69,3.42,0,2.7,2.06,4.04,6.18,4.04h0Z"/>
  <path class="cls-1" d="M252.95,51.75c-2.08,2.07-4.27,3.49-6.58,4.25-2.3.76-4.8,1.14-7.48,1.14s-5.17-.41-7.37-1.21c-2.21-.81-4.08-1.95-5.62-3.42-1.54-1.47-2.72-3.24-3.54-5.33-.82-2.08-1.23-4.41-1.23-6.98s.41-4.73,1.23-6.82c.82-2.09,1.93-3.89,3.33-5.38,1.4-1.49,3.04-2.66,4.94-3.51,1.89-.84,3.9-1.27,6.03-1.27s4.15.46,5.79,1.39,2.83,2.28,3.57,4.06v-4.69h6.45v15.06h-6.45c0-2.85-.78-5.12-2.33-6.82-1.56-1.7-3.58-2.55-6.07-2.55-.99,0-2.03.2-3.13.61-1.09.41-2.1,1.04-3.01,1.89-.91.86-1.67,1.95-2.26,3.27-.6,1.32-.9,2.91-.9,4.76s.29,3.37.87,4.68,1.33,2.39,2.27,3.23,2.04,1.48,3.33,1.91c1.28.43,2.6.64,3.97.64,2.33,0,4.36-.36,6.08-1.09s3.21-1.69,4.45-2.9l3.67,5.06v.02Z"/>
  <path class="cls-1" d="M264.47,42.91c-.43,0-.75.41-.64.83.46,1.87,1.46,3.44,3.01,4.73,1.77,1.48,4.15,2.21,7.13,2.21,2.34,0,4.37-.36,6.09-1.09s3.21-1.69,4.46-2.9l3.68,5.06c-2.08,2.07-4.29,3.49-6.61,4.25-2.33.76-4.86,1.14-7.62,1.14-2.5,0-4.82-.42-6.98-1.25-2.15-.83-4.01-2-5.59-3.49-1.57-1.49-2.81-3.27-3.7-5.33-.89-2.06-1.34-4.35-1.34-6.87s.41-4.71,1.23-6.78,1.98-3.86,3.47-5.38c1.49-1.51,3.28-2.69,5.36-3.54,2.08-.84,4.38-1.27,6.91-1.27s4.99.45,7.11,1.34c2.13.89,3.95,2.18,5.47,3.87,1.52,1.69,2.7,3.75,3.56,6.19s1.28,5.2,1.28,8.28h-26.3.02ZM281.81,36.59c.44,0,.76-.42.64-.85-.49-1.69-1.5-3.08-3.03-4.17-1.78-1.26-3.81-1.89-6.07-1.89s-4.3.63-6.11,1.89c-1.55,1.09-2.58,2.47-3.07,4.17-.12.42.2.85.64.85h17,0Z"/>
  <path class="cls-2" d="M299.66,56.34h0c-2.41,0-4.37-1.96-4.37-4.37h0c0-2.41,1.96-4.37,4.37-4.37h0c2.41,0,4.37,1.96,4.37,4.37h0c0,2.41-1.96,4.37-4.37,4.37Z"/>
  <path class="cls-1" d="M261.04,67.08c0,.97-.31,1.69-.94,2.17s-1.52.72-2.67.72h-3.23v-10.12h3.05c.42,0,.84.03,1.25.1s.77.2,1.1.39.59.46.79.8.3.78.3,1.33c0,1.05-.52,1.77-1.57,2.15,1.28.39,1.92,1.21,1.92,2.46ZM259.63,62.48c0-.36-.07-.65-.22-.88s-.34-.4-.57-.52-.49-.2-.77-.25-.55-.07-.81-.07h-1.99v3.44h1.99c.29,0,.57-.02.85-.07s.53-.13.75-.26.41-.3.55-.52.22-.51.22-.88h0ZM259.98,67.08c0-.7-.23-1.21-.68-1.52s-1.07-.48-1.87-.48h-2.16v3.99h2.16c.79,0,1.41-.17,1.87-.5s.68-.83.68-1.49Z"/>
  <path class="cls-1" d="M262.88,62.75h1.06v4.47c0,.65.14,1.15.42,1.5s.73.53,1.36.53c.39,0,.75-.09,1.06-.27s.58-.42.81-.73c.22-.3.39-.65.51-1.04s.17-.8.17-1.22v-3.24h1.08v7.23h-1.08v-1.81c-.5,1.32-1.41,1.99-2.72,1.99-1.78,0-2.67-.98-2.67-2.94,0,0,0-4.47,0-4.47Z"/>
  <path class="cls-1" d="M278.01,63.77c-.38-.19-.84-.29-1.37-.29-.43,0-.82.09-1.16.28s-.63.43-.87.73-.42.65-.55,1.04c-.13.39-.19.79-.19,1.2v2.33h1.64v.91h-4.34v-.91h1.64v-5.41h-1.64v-.91h2.7v1.81c.49-1.32,1.41-1.99,2.77-1.99.37,0,.69.02.96.07s.52.13.76.25l-.35.87v.02Z"/>
  <path class="cls-1" d="M280.91,66.74c.08.77.36,1.38.84,1.83s1.11.68,1.88.68c.54,0,1.03-.11,1.45-.33s.74-.5.95-.83l.74.51c-.36.51-.79.89-1.3,1.16s-1.12.4-1.85.4c-.56,0-1.07-.09-1.54-.28s-.87-.45-1.21-.78-.6-.73-.79-1.19-.28-.97-.28-1.54.08-1.05.25-1.52.41-.86.73-1.2.7-.6,1.16-.79.96-.28,1.53-.28c.62,0,1.15.1,1.61.31s.84.49,1.15.86c.31.37.54.8.68,1.31s.22,1.07.22,1.68h-6.24.02ZM286.03,65.83c-.12-.79-.41-1.38-.86-1.76s-1.02-.58-1.68-.58c-.34,0-.66.06-.95.17s-.55.27-.77.48c-.22.21-.41.46-.56.75s-.25.61-.29.95h5.11Z"/>
  <path class="cls-1" d="M288.5,68.02c0-.46.11-.84.34-1.14.23-.31.53-.55.89-.73s.79-.31,1.27-.39.96-.12,1.46-.12h.52c.16,0,.3.01.43.02s.27.02.41.04c.14.02.29.03.46.05v-.52c0-.35-.08-.64-.23-.87s-.34-.41-.56-.54-.46-.22-.7-.28-.45-.08-.62-.08c-.54,0-1.03.07-1.49.22s-.88.34-1.27.58l-.48-.8c.43-.27.92-.48,1.46-.65.54-.17,1.13-.25,1.78-.25.39,0,.78.05,1.16.15s.72.26,1.03.47.55.48.73.83.27.75.27,1.23v4.73h-1.08v-1.21c-.18.23-.39.44-.62.61s-.48.32-.74.43-.52.2-.78.26-.5.09-.74.09c-.96,0-1.68-.18-2.17-.55s-.74-.89-.74-1.58h.01ZM291.4,69.25c.44,0,.84-.07,1.2-.2s.65-.3.9-.49.44-.41.58-.63c.14-.22.21-.42.21-.6v-.68c-.35-.05-.68-.08-1-.09h-.82c-.38,0-.75.03-1.1.08s-.66.14-.93.25-.48.27-.63.45c-.16.19-.24.42-.24.69,0,.31.15.59.45.84.3.26.76.38,1.4.38h-.02Z"/>
  <path class="cls-1" d="M297.57,62.75h1.06v4.47c0,.65.14,1.15.42,1.5s.73.53,1.36.53c.39,0,.75-.09,1.06-.27s.58-.42.81-.73c.22-.3.39-.65.51-1.04s.17-.8.17-1.22v-3.24h1.08v7.23h-1.08v-1.81c-.5,1.32-1.41,1.99-2.72,1.99-1.78,0-2.67-.98-2.67-2.94,0,0,0-4.47,0-4.47Z"/>
</svg>
