<?xml version="1.0" encoding="UTF-8"?>
<svg id="Camada_1" data-name="Camada 1" xmlns="http://www.w3.org/2000/svg" viewBox="0 0 300 300">
  <defs>
    <style>
      .cls-1 {
        fill: #e89d23;
      }
    </style>
  </defs>
  <path class="cls-1" d="M150,300c-20.25,0-39.89-3.97-58.39-11.79-17.86-7.56-33.9-18.37-47.68-32.14-13.77-13.77-24.59-29.81-32.14-47.68C3.97,189.89,0,170.25,0,150s3.97-39.89,11.79-58.39c7.56-17.86,18.37-33.9,32.14-47.68,13.77-13.77,29.81-24.59,47.68-32.14C110.11,3.97,129.75,0,150,0s39.89,3.97,58.39,11.79c17.86,7.56,33.9,18.37,47.68,32.14,13.77,13.77,24.59,29.81,32.14,47.68,7.82,18.5,11.79,38.14,11.79,58.39s-3.97,39.89-11.79,58.39c-7.56,17.86-18.37,33.9-32.14,47.68-13.77,13.77-29.81,24.59-47.68,32.14-18.5,7.82-38.14,11.79-58.39,11.79ZM150,20.78c-71.25,0-129.22,57.97-129.22,129.22s57.97,129.22,129.22,129.22,129.22-57.97,129.22-129.22S221.25,20.78,150,20.78Z"/>
  <g>
    <path class="cls-1" d="M219.52,121.83h-27.43v-11.54h5.09l-7.88-12.1-7.76,12.1h4.72v11.54h-27.19v-11.54h8.38l12.97-17.85-12.35-16.91h-7.76v-11.55h26.07v11.55h-4.09l7.01,11.23,7.14-11.23h-4.59v-11.55h26.32v11.55h-7.51l-12.35,16.91,12.98,17.85h8.25v11.54Z"/>
    <path class="cls-1" d="M140.94,122.74h-27.43v-11.54h5.09l-7.88-12.1-7.76,12.1h4.72v11.54h-27.19v-11.54h8.38l12.97-17.85-12.35-16.91h-7.76v-11.55h26.07v11.55h-4.09l7.01,11.23,7.14-11.23h-4.59v-11.55h26.32v11.55h-7.51l-12.35,16.91,12.98,17.85h8.25v11.54Z"/>
    <path class="cls-1" d="M177.97,236.02c-13.92,0-24.28-3.9-31.06-11.71-6.78-7.81-10.18-18.7-10.18-32.67v-22.14h-56.25v-20.37h139.04v42.32c0,14.1-3.5,25.06-10.5,32.86-7,7.8-17.35,11.71-31.05,11.71ZM178.28,215.66c7.14,0,12.49-2.15,16.06-6.45,3.57-4.3,5.35-10.15,5.35-17.56v-22.14h-43.15v22.14c0,7.41,1.78,13.27,5.35,17.56,3.57,4.29,9.03,6.45,16.38,6.45Z"/>
  </g>
</svg>
